<svg id="Layer_1" data-name="Layer 1" xmlns="http://www.w3.org/2000/svg" xmlns:xlink="http://www.w3.org/1999/xlink" viewBox="0 0 512 512"><defs><linearGradient id="linear-gradient" x1="256" y1="512" x2="256" gradientUnits="userSpaceOnUse"><stop offset="0" stop-color="#231f20"/><stop offset="1" stop-color="#58595b"/></linearGradient></defs><title>exclamation</title><path d="M324.12,65.28q0,14.38-5.08,38.09T306.27,159q-7.36,30.2-16.83,75.29t-20,111.44h-27q-10.53-67-20-111.62t-16.83-74.75q-6.64-27.73-12.24-54.24t-5.61-39.84q0-27,20-46.15T255.83,0q27.68,0,48,19.13T324.12,65.28Zm-.7,381.79q0,26.7-20.14,45.81T256.18,512q-27.3,0-47.45-19.12t-20.14-45.81q0-26.67,20.14-46.16t47.45-19.47q27,0,47.09,19.47T323.41,447.07Z" fill="gray"/></svg>