<svg xmlns:dc="http://purl.org/dc/elements/1.1/" 
xmlns:cc="http://creativecommons.org/ns#" 
xmlns:rdf="http://www.w3.org/1999/02/22-rdf-syntax-ns#" 
xmlns:svg="http://www.w3.org/2000/svg" 
xmlns="http://www.w3.org/2000/svg" 
xmlns:sodipodi="http://sodipodi.sourceforge.net/DTD/sodipodi-0.dtd" xmlns:inkscape="http://www.inkscape.org/namespaces/inkscape" 
version="1.1" x="0px" y="0px" viewBox="0 0 100 125">
<g transform="translate(0,-952.36218)">
<path style="font-size:medium;font-style:normal;font-variant:normal;font-weight:normal;font-stretch:normal;text-indent:0;text-align:start;text-decoration:none;line-height:normal;letter-spacing:normal;word-spacing:normal;text-transform:none;direction:ltr;block-progression:tb;writing-mode:lr-tb;text-anchor:start;baseline-shift:baseline;opacity:1;color:#000000;fill:#424874;fill-opacity:1;stroke:none;stroke-width:7.89115523999999980;marker:none;visibility:visible;display:inline;overflow:visible;enable-background:accumulate;font-family:Sans;-inkscape-font-specification:Sans" 
d="M 50 6 C 25.723162 6 6 25.72314 6 50 C 6 74.2768 25.723162 94 50 94 C 55.978451 94 61.675334 92.79266 66.875 90.625 C 69.707767 92.736728 73.207741 94 77 94 C 86.365193 94 94 86.3651 94 77 C 94 73.207738 92.736716 69.707767 90.625 66.875 C 92.792814 61.677863 94 55.975661 94 50 C 94 25.72314 74.276838 6 50 6 z M 50 10 C 72.115081 10 90 27.8849 90 50 C 90 54.815346 89.125416 59.417807 87.5625 63.6875 C 84.658954 61.377522 80.985147 60 77 60 C 74.822443 60 72.759982 60.436192 70.84375 61.1875 C 64.604327 57.885045 57.491465 56 50 56 C 36.58055 56 24.359443 62.005255 16.25 71.5 C 12.290308 65.29288 10 57.919646 10 50 C 10 27.8849 27.884918 10 50 10 z M 50 14 C 45.206883 14 41.193282 15.46296 38.375 18 C 35.556718 20.53704 34 24.13104 34 28 C 34 33.08908 35.121316 38.77949 37.625 43.4375 C 40.128684 48.09552 44.283751 51.8303 49.9375 52 A 2.0001998 2.0001998 0 0 0 50.0625 52 C 55.716249 51.8303 59.871316 48.09552 62.375 43.4375 C 64.878684 38.77949 66 33.08908 66 28 C 66 24.13104 64.443282 20.53704 61.625 18 C 58.806718 15.46296 54.793117 14 50 14 z M 50 18 C 53.988277 18 56.98238 19.18061 58.96875 20.96875 C 60.95512 22.75689 62 25.16968 62 28 C 62 32.48329 60.927358 37.65478 58.84375 41.53125 C 56.771481 45.38663 53.962781 47.8552 50 48 C 46.037219 47.8552 43.228519 45.38663 41.15625 41.53125 C 39.072642 37.65478 38 32.48329 38 28 C 38 25.16968 39.04488 22.75689 41.03125 20.96875 C 43.01762 19.18061 46.011723 18 50 18 z M 50 60 C 55.893699 60 61.506999 61.303649 66.59375 63.59375 C 62.592351 66.708441 60 71.554867 60 77 C 60 81.000788 61.392362 84.68485 63.71875 87.59375 C 59.441022 89.158335 54.824884 90 50 90 C 37.286999 90 25.978738 84.069538 18.65625 74.84375 C 26.002398 65.805622 37.431418 60 50 60 z M 77 64 C 84.203387 64 90 69.7966 90 77 C 90 84.2034 84.203387 90 77 90 C 69.796614 90 64 84.2034 64 77 C 64 69.7966 69.796614 64 77 64 z M 76.78125 67.96875 A 2.0001999 2.0001999 0 0 0 75 70 L 75 75 L 70 75 A 2.0001999 2.0001999 0 0 0 69.8125 75 A 2.0021961 2.0021961 0 1 0 70 79 L 75 79 L 75 84 A 2.0001999 2.0001999 0 1 0 79 84 L 79 79 L 84 79 A 2.0001999 2.0001999 0 1 0 84 75 L 79 75 L 79 70 A 2.0001999 2.0001999 0 0 0 76.78125 67.96875 z " transform="translate(0,952.36218)"/>
</g>
<!-- <text x="0" y="115" fill="#000000" font-size="5px" font-weight="bold" font-family="'Helvetica Neue', Helvetica, Arial-Unicode, Arial, Sans-serif">Created by artworkbean</text><text x="0" y="120" fill="#000000" font-size="5px" font-weight="bold" font-family="'Helvetica Neue', Helvetica, Arial-Unicode, Arial, Sans-serif">from the Noun Project</text> -->
</svg>