<svg xmlns="http://www.w3.org/2000/svg" xmlns:xlink="http://www.w3.org/1999/xlink" xml:space="preserve" version="1.1" style="shape-rendering:geometricPrecision;text-rendering:geometricPrecision;image-rendering:optimizeQuality;" viewBox="0 0 744.2 940.8875" x="0px" y="0px" fill-rule="evenodd" clip-rule="evenodd"><defs><style type="text/css">
   
    .fil0 {fill:black;fill-rule:nonzero}
   
  </style></defs><g><path class="fil0" d="M378.73 0c328.14,0 485.69,397.05 258.56,624.21 -93.56,93.55 -229.72,128.89 -356.05,93.84 -124.59,57.75 -261.57,25.9 -261.96,25.81 -25.15,-5.75 -25.8,-41.31 -1.26,-48.32 41.86,-11.97 70.92,-46.36 90.61,-83.53 -61.61,-67.5 -95.55,-154.93 -95.55,-246.36 0,-201.95 163.7,-365.65 365.65,-365.65zm184.39 475.38c32.88,0 32.88,50 0,50l-368.77 0c-32.88,0 -32.88,-50 0,-50l368.77 0zm0 -89.82c32.88,0 32.88,50 0,50l-368.77 0c-32.88,0 -32.88,-50 0,-50l368.77 0zm0 -89.82c32.88,0 32.88,50 0,50l-368.77 0c-32.88,0 -32.88,-50 0,-50l368.77 0zm0 -89.82c32.88,0 32.88,50 0,50l-368.77 0c-32.88,0 -32.88,-50 0,-50l368.77 0zm-184.39 -155.92c-174.32,0 -315.65,141.33 -315.65,315.65 0,131.14 110.01,226.26 98.25,252.03 -14.43,31.72 -33.55,61.45 -59.17,85.28 46.1,1.03 107.93,-4.82 165.53,-33.63 36,-18.49 183.22,70.52 334.24,-80.48 196.08,-196.12 60.04,-538.85 -223.2,-538.85z"/></g></svg>