<svg xmlns="http://www.w3.org/2000/svg" viewBox="0 0 24 30" fill="none" x="0px" y="0px"><path fill-rule="evenodd" clip-rule="evenodd" d="M6 10C5.44772 10 5 10.4477 5 11V21C5 21.5523 5.44772 22 6 22H18C18.5523 22 19 21.5523 19 21V11C19 10.4477 18.5523 10 18 10V21H6V10Z" fill="black"/><path fill-rule="evenodd" clip-rule="evenodd" d="M14 15H10V21H14V15ZM10 14C9.44772 14 9 14.4477 9 15V21C9 21.5523 9.44772 22 10 22H14C14.5523 22 15 21.5523 15 21V15C15 14.4477 14.5523 14 14 14H10Z" fill="black"/><path fill-rule="evenodd" clip-rule="evenodd" d="M13 10H11V11H13V10ZM11 9C10.4477 9 10 9.44771 10 10V11C10 11.5523 10.4477 12 11 12H13C13.5523 12 14 11.5523 14 11V10C14 9.44772 13.5523 9 13 9H11Z" fill="black"/><path fill-rule="evenodd" clip-rule="evenodd" d="M12.307 3.87219C12.1264 3.73175 11.8736 3.73175 11.693 3.87218L3.30697 10.3947C3.089 10.5642 2.77486 10.5249 2.60532 10.307C2.43579 10.089 2.47506 9.77486 2.69303 9.60532L11.0791 3.08283C11.6208 2.66154 12.3792 2.66154 12.9209 3.08283L21.307 9.60532C21.5249 9.77486 21.5642 10.089 21.3947 10.307C21.2251 10.5249 20.911 10.5642 20.693 10.3947L12.307 3.87219Z" fill="black"/></svg>