<svg xmlns="http://www.w3.org/2000/svg" xmlns:xlink="http://www.w3.org/1999/xlink" viewBox="0 0 100 125" version="1.1" x="0px" y="0px"><title>Bell v2.3</title><desc>Created with Sketch.</desc><g stroke="none" stroke-width="1" fill="none" fill-rule="evenodd"><g fill-rule="nonzero" fill="#000000"><path d="M58.4417969,71 C57.9468689,75.2231701 54.3561068,78.5 50,78.5 C45.6438932,78.5 42.0531311,75.2231701 41.5582031,71 L30.0098932,71 C26.9668098,71 24.5,68.5387515 24.5,65.5 C24.5,62.4654619 26.9648349,60 30.0020869,60 C30.2744059,60 30.5,59.7742672 30.5,59.4982567 L30.5,47.4992494 C30.5,38.9458465 36.0493632,31.50398 44,28.9402086 L44,28.0008537 C44,24.6882223 46.6897988,22 50,22 C53.3154934,22 56,24.682604 56,28.0008537 L56,28.9403324 C63.9504345,31.5044463 69.5,38.9476626 69.5,47.4992494 L69.5,59.4982567 C69.5,59.779748 69.720359,60 69.9979131,60 C73.0304702,60 75.5,62.4646677 75.5,65.5 C75.5,68.5351929 73.0310133,71 69.9901068,71 L58.4417969,71 Z M55.4093119,71 L44.5906881,71 C45.0609444,73.560118 47.3039304,75.5 50,75.5 C52.6960696,75.5 54.9390556,73.560118 55.4093119,71 Z M45.8737226,31.5194904 C38.643809,33.3794653 33.5,39.9246235 33.5,47.4992494 L33.5,59.4982567 C33.5,61.4307089 31.9316731,63 30.0020869,63 C28.62186,63 27.5,64.1221454 27.5,65.5 C27.5,66.8803796 28.6221502,68 30.0098932,68 L69.9901068,68 C71.3752958,68 72.5,66.8771998 72.5,65.5 C72.5,64.1228469 71.3749381,63 69.9979131,63 C68.0638308,63 66.5,61.4369284 66.5,59.4982567 L66.5,47.4992494 C66.5,39.926412 61.355852,33.3797286 54.1262255,31.5195519 L53,31.2297751 L53,28.0008537 C53,26.3399346 51.6591151,25 50,25 C48.3462594,25 47,26.3454704 47,28.0008537 L47,31.2297431 L45.8737226,31.5194904 Z"/></g></g></svg>