<svg xmlns="http://www.w3.org/2000/svg" xmlns:xlink="http://www.w3.org/1999/xlink" version="1.1" x="0px" y="0px" viewBox="0 0 100 125" enable-background="new 0 0 100 100" xml:space="preserve"><path d="M80,67c-8.5-6.9-17.6-11.6-19.4-12.4c-0.9-0.5-1.5-1.4-1.5-2.5V38.7c0-0.7,0.4-1.4,0.9-1.8c1.2-0.8,1.9-2.1,1.9-3.4V19.6  c0-5.7-4.7-10.4-10.4-10.4h-3c-5.7,0-10.4,4.7-10.4,10.4v13.9c0,1.4,0.7,2.7,1.9,3.4c0.6,0.4,0.9,1.1,0.9,1.8v13.4  c0,1-0.6,2-1.5,2.5C37.6,55.5,28.5,60.1,20,67c-1.1,0.9-1.7,2.2-1.7,3.6v9.5c0,1.2-1,2.1-2.1,2.1s-2.1-1-2.1-2.1v-9.5  c0-2.7,1.2-5.2,3.2-6.8c7.9-6.5,16.3-11,19.4-12.5V39.8c-1.8-1.6-2.8-3.8-2.8-6.2V19.6C33.9,11.6,40.4,5,48.5,5h3  c8.1,0,14.6,6.6,14.6,14.6v13.9c0,2.4-1,4.7-2.8,6.2v11.4c3,1.5,11.5,6.1,19.4,12.5c2,1.7,3.2,4.2,3.2,6.8v9.5c0,1.2-1,2.1-2.1,2.1  s-2.1-1-2.1-2.1v-9.5C81.7,69.2,81.1,67.9,80,67z M58.8,74v3.1h1.8c1.2,0,2.1,1,2.1,2.1v13.6c0,1.2-1,2.1-2.1,2.1H39.4  c-1.2,0-2.1-1-2.1-2.1V79.3c0-1.2,1-2.1,2.1-2.1h1.8V74c0-4.9,3.9-8.8,8.8-8.8S58.8,69.2,58.8,74z M45.4,77.1h9.1V74  c0-2.5-2-4.6-4.6-4.6s-4.6,2-4.6,4.6V77.1z M58.4,81.4H41.6v9.4h16.9V81.4z"/></svg>