<svg xmlns="http://www.w3.org/2000/svg" xmlns:xlink="http://www.w3.org/1999/xlink" version="1.1" x="0px" y="0px" viewBox="0 0 100 125" style="enable-background:new 0 0 100 100;" xml:space="preserve"><g><path d="M86.6,38.6h-2.1c-0.5-1.6-1.2-3.2-1.9-4.7l1.5-1.5c2.5-2.5,2.5-6.6,0-9.1L77,16.2c-2.5-2.5-6.6-2.5-9.1,0l-1.5,1.5   c-1.5-0.8-3.1-1.4-4.7-1.9v-2.1c0-3.5-2.9-6.4-6.4-6.4H45.3c-3.5,0-6.4,2.9-6.4,6.4v2.1c-1.6,0.5-3.2,1.2-4.7,1.9l-1.5-1.5   c-1.2-1.2-2.8-1.9-4.5-1.9c-1.7,0-3.3,0.7-4.5,1.9l-7.1,7.1c-1.2,1.2-1.9,2.8-1.9,4.5s0.7,3.3,1.9,4.5l1.5,1.5   c-0.8,1.5-1.4,3.1-1.9,4.7H14c-3.5,0-6.4,2.9-6.4,6.4V55c0,3.5,2.9,6.4,6.4,6.4H16c0.5,1.6,1.2,3.2,1.9,4.7l-1.5,1.5   c-1.2,1.2-1.9,2.8-1.9,4.5s0.7,3.3,1.9,4.5l7.1,7.1c1.2,1.2,2.8,1.9,4.5,1.9c1.7,0,3.3-0.7,4.5-1.9l1.5-1.5   c1.5,0.8,3.1,1.4,4.7,1.9v2.1c0,3.5,2.9,6.4,6.4,6.4h10.1c3.5,0,6.4-2.9,6.4-6.4v-2.1c1.6-0.5,3.2-1.2,4.7-1.9l1.5,1.5   c2.5,2.5,6.6,2.5,9.1,0l7.1-7.1c2.5-2.5,2.5-6.6,0-9.1l-1.5-1.5c0.8-1.5,1.4-3.1,1.9-4.7h2.1c3.5,0,6.4-2.9,6.4-6.4V45   C93,41.4,90.2,38.6,86.6,38.6z M88,55c0,0.8-0.6,1.4-1.4,1.4h-5.8l-0.5,1.8c-0.7,2.5-1.7,4.9-2.9,7.1L76.4,67l4.1,4.1   c0.5,0.5,0.5,1.4,0,2l-7.1,7.1c-0.5,0.5-1.4,0.5-2,0l-4.1-4.1l-1.7,0.9c-2.2,1.3-4.6,2.3-7.1,2.9l-1.8,0.5v5.8   c0,0.8-0.6,1.4-1.4,1.4H45.3c-0.8,0-1.4-0.6-1.4-1.4v-5.8L42,80c-2.5-0.7-4.9-1.7-7.1-2.9l-1.7-0.9l-4.1,4.1c-0.5,0.5-1.5,0.5-2,0   L20,73.1c-0.3-0.3-0.4-0.6-0.4-1s0.1-0.7,0.4-1l4.1-4.1l-0.9-1.7c-1.3-2.2-2.3-4.6-2.9-7.1l-0.5-1.8H14c-0.8,0-1.4-0.6-1.4-1.4V45   c0-0.8,0.6-1.4,1.4-1.4h5.8l0.5-1.8c0.7-2.5,1.7-4.9,2.9-7.1l0.9-1.7L20,28.9c-0.3-0.3-0.4-0.6-0.4-1s0.1-0.7,0.4-1l7.1-7.1   c0.5-0.5,1.5-0.5,2,0l4.1,4.1l1.7-0.9c2.2-1.3,4.6-2.3,7.1-2.9l1.8-0.5v-5.8c0-0.8,0.6-1.4,1.4-1.4h10.1c0.8,0,1.4,0.6,1.4,1.4v5.8   l1.8,0.5c2.5,0.7,4.9,1.7,7.1,2.9l1.7,0.9l4.1-4.1c0.5-0.5,1.4-0.5,2,0l7.1,7.1c0.5,0.5,0.5,1.4,0,2L76.4,33l0.9,1.7   c1.3,2.2,2.3,4.6,2.9,7.1l0.5,1.8h5.8c0.8,0,1.4,0.6,1.4,1.4V55z"/><path d="M50.3,29.6c-11.2,0-20.4,9.1-20.4,20.4s9.1,20.4,20.4,20.4c11.2,0,20.4-9.1,20.4-20.4S61.5,29.6,50.3,29.6z M50.3,65.4   c-8.5,0-15.4-6.9-15.4-15.4s6.9-15.4,15.4-15.4c8.5,0,15.4,6.9,15.4,15.4S58.8,65.4,50.3,65.4z"/></g></svg>